<?xml version="1.0" encoding="utf-8"?>
<!-- Generator: Adobe Illustrator 17.0.0, SVG Export Plug-In . SVG Version: 6.00 Build 0)  -->
<!DOCTYPE svg PUBLIC "-//W3C//DTD SVG 1.1//EN" "http://www.w3.org/Graphics/SVG/1.1/DTD/svg11.dtd">
<svg version="1.1" id="Layer_1" xmlns="http://www.w3.org/2000/svg" xmlns:xlink="http://www.w3.org/1999/xlink" x="0px" y="0px"
	 width="280.253px" height="84.185px" viewBox="0 0 280.253 84.185" enable-background="new 0 0 280.253 84.185"
	 xml:space="preserve">
<g>
	<g>
		<path fill="#00609C" d="M101.578,59.354H69.051c-5.223,0-8.547-2.611-8.547-7.478c0-3.68,1.9-6.411,5.698-11.041l23.267-28.49
			H62.522v-9.97h27.66c7.122,0,10.921,2.967,10.921,7.596c0,2.494-0.475,4.63-1.781,6.174L72.138,49.382h29.44V59.354z"/>
		<path fill="#00609C" d="M204.805,1.188v34.187c0,7.834-4.511,14.008-13.295,14.008c-8.784,0-13.295-6.174-13.295-14.008V1.188
			h-10.447v34.306c0,13.058,6.411,20.656,18.519,23.859c0,0,2.253,0.481,5.223,0.481c2.969,0,5.224-0.481,5.224-0.481
			c3.059-0.809,5.751-1.901,8.071-3.289v3.661c0,7.834-4.511,14.008-13.295,14.008c-8.784,0-13.295-6.174-13.295-14.008
			c-5.758-1.654-8.942-7.138-10.447-10.023v9.936c0,13.264,6.411,20.862,18.519,24.065c0,0,2.253,0.481,5.223,0.481
			c2.969,0,5.224-0.481,5.224-0.481c12.108-3.204,18.518-10.801,18.518-23.859V35.494V1.188H204.805z"/>
		<path fill="#8AA4C0" d="M250.694,0c15.789,0,29.559,12.108,29.559,29.678c0,17.568-13.77,29.676-29.559,29.676
			s-29.559-12.108-29.559-29.676C221.136,12.108,234.906,0,250.694,0z M250.694,49.383c10.803,0,18.637-8.072,18.637-19.706
			s-7.834-19.706-18.637-19.706c-10.803,0-18.637,8.072-18.637,19.706S239.892,49.383,250.694,49.383z"/>
	</g>
	<path fill="#8AA4C0" d="M161.61,29.678C161.61,12.108,147.84,0,132.051,0c-15.789,0-29.559,12.108-29.559,29.678
		c0,17.568,13.77,29.676,29.559,29.676c6.934,0,13.477-2.336,18.637-6.444v6.428h10.933V29.952
		C161.621,29.952,161.61,29.77,161.61,29.678z M132.051,49.383c-10.803,0-18.637-8.072-18.637-19.706s7.834-19.706,18.637-19.706
		c10.803,0,18.637,8.072,18.637,19.706S142.854,49.383,132.051,49.383z"/>
	<path fill="#00609C" d="M46.962,37.383c-2.599,7.457-9.121,12.213-17.404,12.213c-10.803,0-18.637-8.072-18.637-19.706
		c0-11.633,7.834-19.706,18.637-19.706c8.282,0,14.804,4.755,17.403,12.211h11.264C54.945,8.972,42.985,0.212,29.559,0.212
		C13.77,0.212,0,12.321,0,29.89c0,17.568,13.77,29.676,29.559,29.676c13.427,0,25.387-8.76,28.667-22.183H46.962z"/>
</g>
<polyline fill="#8AA4C0" points="58.613,24.396 58.613,35.383 19.337,35.383 19.337,24.396 58.613,24.396 "/>
<rect x="7.389" y="68.792" fill="none" width="156.25" height="10.25"/>
<text transform="matrix(1 0 0 1 7.3892 75.892)"><tspan x="0" y="0" fill="#00609C" font-family="'Gotham-LightItalic'" font-size="10">Powered by</tspan><tspan x="47.119" y="0" fill="#00609C" font-family="'Gotham-Light'" font-size="10"> Hunt Scanlon Media</tspan></text>
</svg>
